# xmcd
#
# Track frame offsets:
# 150
# 9857
# 25302
# 31070
# 45192
# 52592
# 66435
# 82762
# 100982
# 123057
# 138040
# 144955
# 154787
# 161642
# 171255
# 179080
# 184975
# 188695
# 191532
# 198442
#
# Disc length: 2684 seconds
#
#
# Revision: 1
# Processed by: cddbd v1.5.1PL0 Copyright (c) Steve Scherf et al.
# Submitted via: FreeRIP 2.942 
#
DISCID=f60a7a14
DTITLE=Rubbermade Ducks - Hats - Os excluídos - Discarga - Bem vindo ao paraíso
DYEAR=2001
DGENRE=Punk Rock
TTITLE0=I don't mind anymore
TTITLE1=Footprints
TTITLE2=Now you know
TTITLE3=Tommy is a termite
TTITLE4=Your mom sleeps on a tire
TTITLE5=Não, nunca
TTITLE6=Eu não quero
TTITLE7=Não há mais tempo
TTITLE8=Eles vão te enganar
TTITLE9=Preconceito
TTITLE10=Bloody orange
TTITLE11=All hadavers
TTITLE12=Punk day
TTITLE13=Diet crab
TTITLE14=Garlic crown
TTITLE15=Ainda quero acredita
TTITLE16=Ele ou eu?
TTITLE17=Olho gordo
TTITLE18=Sister
TTITLE19=O perigo mora ao lado
EXTD=
EXTT0=
EXTT1=
EXTT2=
EXTT3=
EXTT4=
EXTT5=
EXTT6=
EXTT7=
EXTT8=
EXTT9=
EXTT10=
EXTT11=
EXTT12=
EXTT13=
EXTT14=
EXTT15=
EXTT16=
EXTT17=
EXTT18=
EXTT19=
PLAYORDER=
